<svg xmlns="http://www.w3.org/2000/svg" width="76" height="76" viewBox="0 0 76 76">
  <g id="noun_Health_2563221" transform="translate(0.5 0.5)">
    <g id="Group_1656" data-name="Group 1656" transform="translate(0 0)">
      <path id="Path_1931" data-name="Path 1931" d="M38.4,959.362a8.386,8.386,0,0,0-4.905,1.363,4.765,4.765,0,0,0-2.071,3.87v2.616h-.872a8.45,8.45,0,0,0-4.933,1.363,4.733,4.733,0,0,0-2.044,3.87v11.337H13.1a6.318,6.318,0,0,0-4.17,1.444A6.026,6.026,0,0,0,7,989.885v20.93c0,4.054,2.956,6.977,6.1,6.977H23.57v10.465a6.259,6.259,0,0,0,1.472,4.142,5.987,5.987,0,0,0,4.633,1.962H50.6c4.054,0,6.977-2.957,6.977-6.1v-10.465H68.918a4.759,4.759,0,0,0,3.87-2.071,8.361,8.361,0,0,0,1.363-4.906v-.872h2.616a4.716,4.716,0,0,0,3.843-2.071,8.394,8.394,0,0,0,1.39-4.906V990.758a.873.873,0,1,0-1.744,0v12.209a6.668,6.668,0,0,1-1.063,3.87,2.879,2.879,0,0,1-2.425,1.363H74.151V989.885a6.7,6.7,0,0,0-1.417-4.578,4.993,4.993,0,0,0-3.815-1.526H57.581V972.444a5.015,5.015,0,0,0-1.553-3.815,6.623,6.623,0,0,0-4.551-1.417H33.163v-2.616a2.9,2.9,0,0,1,1.335-2.453,6.767,6.767,0,0,1,3.9-1.036h20.93c3.166,0,5.178,2.327,5.233,4.36v10.465a.906.906,0,0,0,.872.872H75.895c2,0,4.36,2.066,4.36,5.233v3.488a.872.872,0,1,0,1.744,0v-3.488c0-4.027-2.968-6.977-6.1-6.977H66.3v-9.593c0-.009,0-.018,0-.027-.084-3.1-2.949-6.077-6.977-6.077Zm-7.849,9.593h20.93a4.987,4.987,0,0,1,3.407.981,3.144,3.144,0,0,1,.954,2.507v12.209a.906.906,0,0,0,.872.872H68.918a3.144,3.144,0,0,1,2.507.954,4.987,4.987,0,0,1,.981,3.407v20.93a6.742,6.742,0,0,1-1.036,3.9,2.884,2.884,0,0,1-2.453,1.335H56.709a.906.906,0,0,0-.872.872v11.337c0,2.039-2.024,4.36-5.233,4.36H29.674a4.132,4.132,0,0,1-3.325-1.363,4.552,4.552,0,0,1-1.036-3V1016.92a.906.906,0,0,0-.872-.872H13.1c-2.039,0-4.36-2.024-4.36-5.233v-20.93a4.119,4.119,0,0,1,1.335-3.325,4.635,4.635,0,0,1,3.025-1.036H24.442a.906.906,0,0,0,.872-.872V972.444a2.883,2.883,0,0,1,1.335-2.453A6.742,6.742,0,0,1,30.546,968.955ZM33,990.758a6.837,6.837,0,0,0-.79.082,9.354,9.354,0,0,0-4.878,2.78,7.2,7.2,0,0,0-1.154,1.508,7.311,7.311,0,0,0,1.127,8.44c4,4.168,8.131,8.9,12.209,13.081a.908.908,0,0,0,1.254,0c4.079-4.18,8.213-8.913,12.209-13.081H53a7.294,7.294,0,0,0,1.09-8.462,7.491,7.491,0,0,0-1.144-1.486,9.354,9.354,0,0,0-4.878-2.78c-2.042-.328-4.395.389-6.786,2.78l-1.145,1.117-1.117-1.117a8.9,8.9,0,0,0-5.233-2.834,5.229,5.229,0,0,0-.79-.027Zm.055,1.744c1.34-.053,2.855.484,4.715,2.344l1.744,1.744a.907.907,0,0,0,1.254,0l1.744-1.744c2.125-2.125,3.813-2.526,5.287-2.289a7.881,7.881,0,0,1,3.952,2.316,5.468,5.468,0,0,1-.027,7.467c0,.009,0,.023,0,.027-3.824,3.988-7.755,8.4-11.582,12.373-3.828-3.969-7.759-8.384-11.582-12.373a5.5,5.5,0,0,1-.027-7.495l.027-.027a7.841,7.841,0,0,1,3.924-2.289,4.876,4.876,0,0,1,.572-.055Z" transform="translate(-7 -959.362)" fill="#f7d117" stroke="#f7d117" stroke-width="1"/>
    </g>
  </g>
</svg>
