<svg xmlns="http://www.w3.org/2000/svg" width="97.841" height="75.537" viewBox="0 0 97.841 75.537">
  <g id="Outline" transform="translate(0.25 0.25)">
    <g id="Group_92" data-name="Group 92">
      <path id="Path_452" data-name="Path 452" d="M97.718,19.112A1.622,1.622,0,0,0,96.1,20.734v58.4H87.287A138,138,0,0,0,56.28,82.669a3.232,3.232,0,0,1-3.419-1.35A36.879,36.879,0,0,1,72.1,75.894H91.229a1.622,1.622,0,0,0,1.622-1.622V62.915a1.622,1.622,0,0,0-3.245,0v9.734H72.1a40.117,40.117,0,0,0-19.81,5.211V33.713a1.622,1.622,0,0,0-3.245,0V77.859a40.111,40.111,0,0,0-19.81-5.209h-17.5v-58.4H36.718a12.338,12.338,0,0,1,12.33,12.338,1.622,1.622,0,0,0,3.245,0,12.338,12.338,0,0,1,12.33-12.338H89.607V56.426a1.622,1.622,0,1,0,3.245,0v-43.8A1.622,1.622,0,0,0,91.229,11H64.623A15.6,15.6,0,0,0,50.67,19.65,15.6,15.6,0,0,0,36.718,11H10.112a1.622,1.622,0,0,0-1.622,1.622V74.272a1.622,1.622,0,0,0,1.622,1.622H29.238a36.872,36.872,0,0,1,19.239,5.421,3.245,3.245,0,0,1-3.4,1.357,138.011,138.011,0,0,0-31.022-3.533H5.245v-58.4a1.622,1.622,0,1,0-3.245,0V80.761a1.622,1.622,0,0,0,1.622,1.622H14.054a134.8,134.8,0,0,1,30.269,3.446,6.457,6.457,0,0,0,6.348-2.052A6.454,6.454,0,0,0,57,85.834a134.889,134.889,0,0,1,30.289-3.451H97.718a1.622,1.622,0,0,0,1.622-1.622V20.734A1.622,1.622,0,0,0,97.718,19.112Z" transform="translate(-2 -11)" fill="#f7d117" stroke="#fff" stroke-width="0.5"/>
      <path id="Path_453" data-name="Path 453" d="M39.753,20.617A15.54,15.54,0,0,0,31.117,18H12.622a1.622,1.622,0,0,0,0,3.245H31.117a12.291,12.291,0,0,1,6.843,2.072,1.623,1.623,0,1,0,1.8-2.7Z" transform="translate(3.601 -6.644)" fill="#f7d117" stroke="#fff" stroke-width="0.5"/>
      <path id="Path_454" data-name="Path 454" d="M62.688,18H44.193a15.544,15.544,0,0,0-8.644,2.617,1.623,1.623,0,0,0,1.8,2.7,12.3,12.3,0,0,1,6.843-2.072H62.688a1.622,1.622,0,1,0,0-3.245Z" transform="translate(18.43 -6.644)" fill="#f7d117" stroke="#fff" stroke-width="0.5"/>
      <path id="Path_455" data-name="Path 455" d="M39.753,25.617A15.541,15.541,0,0,0,31.117,23H12.622a1.622,1.622,0,0,0,0,3.245H31.117a12.291,12.291,0,0,1,6.843,2.072,1.623,1.623,0,1,0,1.8-2.7Z" transform="translate(3.601 -3.532)" fill="#f7d117" stroke="#fff" stroke-width="0.5"/>
      <path id="Path_456" data-name="Path 456" d="M62.688,23H44.193a15.544,15.544,0,0,0-8.644,2.617,1.623,1.623,0,0,0,1.8,2.7,12.3,12.3,0,0,1,6.843-2.072H62.688a1.622,1.622,0,1,0,0-3.245Z" transform="translate(18.43 -3.532)" fill="#f7d117" stroke="#fff" stroke-width="0.5"/>
      <path id="Path_457" data-name="Path 457" d="M39.753,30.617A15.54,15.54,0,0,0,31.117,28H12.622a1.622,1.622,0,0,0,0,3.245H31.117a12.291,12.291,0,0,1,6.843,2.072,1.623,1.623,0,1,0,1.8-2.7Z" transform="translate(3.601 -0.42)" fill="#f7d117" stroke="#fff" stroke-width="0.5"/>
      <path id="Path_458" data-name="Path 458" d="M62.688,28H44.193a15.544,15.544,0,0,0-8.644,2.617,1.623,1.623,0,0,0,1.8,2.7,12.3,12.3,0,0,1,6.843-2.072H62.688a1.622,1.622,0,1,0,0-3.245Z" transform="translate(18.43 -0.42)" fill="#f7d117" stroke="#fff" stroke-width="0.5"/>
      <path id="Path_459" data-name="Path 459" d="M39.753,35.617A15.54,15.54,0,0,0,31.117,33H12.622a1.622,1.622,0,0,0,0,3.245H31.117a12.291,12.291,0,0,1,6.843,2.072,1.623,1.623,0,0,0,1.8-2.7Z" transform="translate(3.601 2.692)" fill="#f7d117" stroke="#fff" stroke-width="0.5"/>
      <path id="Path_460" data-name="Path 460" d="M62.688,33H44.193a15.544,15.544,0,0,0-8.644,2.617,1.623,1.623,0,0,0,1.8,2.7,12.3,12.3,0,0,1,6.843-2.072H62.688a1.622,1.622,0,1,0,0-3.245Z" transform="translate(18.43 2.692)" fill="#f7d117" stroke="#fff" stroke-width="0.5"/>
      <path id="Path_461" data-name="Path 461" d="M39.753,40.617A15.54,15.54,0,0,0,31.117,38H12.622a1.622,1.622,0,0,0,0,3.245H31.117a12.291,12.291,0,0,1,6.843,2.072,1.623,1.623,0,0,0,1.8-2.7Z" transform="translate(3.601 5.803)" fill="#f7d117" stroke="#fff" stroke-width="0.5"/>
      <path id="Path_462" data-name="Path 462" d="M62.688,38H44.193a15.544,15.544,0,0,0-8.644,2.617,1.623,1.623,0,0,0,1.8,2.7,12.3,12.3,0,0,1,6.843-2.072H62.688a1.622,1.622,0,1,0,0-3.245Z" transform="translate(18.43 5.803)" fill="#f7d117" stroke="#fff" stroke-width="0.5"/>
      <path id="Path_463" data-name="Path 463" d="M31.117,43H12.622a1.622,1.622,0,0,0,0,3.245H31.117a12.291,12.291,0,0,1,6.843,2.072,1.623,1.623,0,0,0,1.8-2.7A15.54,15.54,0,0,0,31.117,43Z" transform="translate(3.601 8.915)" fill="#f7d117" stroke="#fff" stroke-width="0.5"/>
      <path id="Path_464" data-name="Path 464" d="M62.688,43H44.193a15.544,15.544,0,0,0-8.644,2.617,1.623,1.623,0,0,0,1.8,2.7,12.3,12.3,0,0,1,6.843-2.072H62.688a1.622,1.622,0,1,0,0-3.245Z" transform="translate(18.43 8.915)" fill="#f7d117" stroke="#fff" stroke-width="0.5"/>
    </g>
  </g>
</svg>
