<svg xmlns="http://www.w3.org/2000/svg" width="78.759" height="75.25" viewBox="0 0 78.759 75.25">
  <g id="Group_1118" data-name="Group 1118" transform="translate(-189.307 -194.249)">
    <path id="Path_1290" data-name="Path 1290" d="M221.956,282.838a18.412,18.412,0,0,0-4.746-4.875,10.858,10.858,0,0,0,.913-4.366,10.321,10.321,0,1,0-20.632,0,10.846,10.846,0,0,0,1.046,4.656,20.018,20.018,0,0,0-4.053,4.167c-4.233,5.737-4.661,11.115-5.052,20.126,0,.015,0,.03,0,.045v.356c0,3.369,1.884,6.119,5.448,7.952,3.218,1.655,7.78,2.53,13.193,2.53s9.974-.875,13.192-2.53c3.563-1.833,5.447-4.583,5.447-7.952v-.354c0-.015,0-.03,0-.044C226.331,293.738,225.922,288.478,221.956,282.838Zm-14.148-17.82a8.429,8.429,0,0,1,8.251,8.579,8.807,8.807,0,0,1-.731,3.521,8.638,8.638,0,0,1-1.065,1.811,8.043,8.043,0,0,1-12.809.132,8.635,8.635,0,0,1-1.092-1.772,8.8,8.8,0,0,1-.8-3.693A8.429,8.429,0,0,1,207.808,265.018Zm16.839,37.929c0,2.581-1.456,4.639-4.326,6.116-2.926,1.505-7.162,2.3-12.247,2.3s-9.322-.8-12.248-2.3c-2.871-1.477-4.327-3.535-4.327-6.116v-.333c.407-9.358.972-13.983,4.649-18.967a18.67,18.67,0,0,1,3.46-3.612c.02.027.037.057.057.083a10.112,10.112,0,0,0,16.461-.234c.025-.035.046-.074.071-.11a16.576,16.576,0,0,1,4.071,4.252c3.639,5.175,4.006,9.935,4.38,18.589Z" transform="translate(0 -44.232)" fill="#f7d117" stroke="#f7d117" stroke-width="0.25"/>
    <path id="Path_1291" data-name="Path 1291" d="M357.9,326c-.294-6.8-.609-10.862-3.684-15.235a14.671,14.671,0,0,0-3.57-3.708,8.485,8.485,0,0,0,.658-3.288,8.106,8.106,0,1,0-16.2,0,8.462,8.462,0,0,0,.759,3.52,15.732,15.732,0,0,0-3.034,3.152c-3.282,4.448-3.613,8.6-3.915,15.555v.318c0,2.659,1.48,4.826,4.281,6.267a27.566,27.566,0,0,0,20.43,0c2.8-1.44,4.281-3.607,4.281-6.267Zm-9.084-19.6a6.527,6.527,0,0,1-.8,1.354,6,6,0,0,1-9.56.1,6.465,6.465,0,0,1-.816-1.325,6.551,6.551,0,0,1-.6-2.762,6.165,6.165,0,1,1,12.321,0A6.566,6.566,0,0,1,348.814,306.4Zm-5.614,5.718a8.06,8.06,0,0,0,6.489-3.359,13,13,0,0,1,2.936,3.119c2.769,3.937,3.047,7.572,3.332,14.178v.255c0,1.911-1.086,3.438-3.227,4.54a25.764,25.764,0,0,1-18.655,0c-2.142-1.1-3.228-2.63-3.228-4.54v-.249c.311-7.151.74-10.681,3.537-14.472a14.431,14.431,0,0,1,2.479-2.628A7.967,7.967,0,0,0,343.2,312.119Z" transform="translate(-89.957 -65.166)" fill="#f7d117" stroke="#f7d117" stroke-width="0.25"/>
    <path id="Path_1292" data-name="Path 1292" d="M281.7,194.374H256.812a9.978,9.978,0,0,0-9.978,9.978v12.406a1.377,1.377,0,0,0,.71,1.233,1.31,1.31,0,0,0,1.446-.152l4.167-3.437a8.553,8.553,0,0,1,5.428-1.949h13.661a1.032,1.032,0,0,0,1.032-1.032h0a1.033,1.033,0,0,0-1.032-1.033H258.584a10.624,10.624,0,0,0-6.742,2.421l-2.943,2.428V204.353a7.913,7.913,0,0,1,7.914-7.914H281.7a4.355,4.355,0,0,1,4.355,4.355v5.24a4.354,4.354,0,0,1-4.354,4.354h-4.32a1.033,1.033,0,0,0-1.032,1.033h0a1.032,1.032,0,0,0,1.032,1.032H281.7a6.42,6.42,0,0,0,6.42-6.42v-5.239A6.419,6.419,0,0,0,281.7,194.374Z" transform="translate(-37.023)" fill="#f7d117" stroke="#f7d117" stroke-width="0.25"/>
    <path id="Path_1293" data-name="Path 1293" d="M271.773,211a3.316,3.316,0,1,0,2.7,2.707A3.32,3.32,0,0,0,271.773,211Zm-.32,4.494a1.25,1.25,0,1,1,.982-.981A1.252,1.252,0,0,1,271.453,215.5Z" transform="translate(-50.606 -10.696)" fill="#f7d117" stroke="#f7d117" stroke-width="0.25"/>
    <path id="Path_1294" data-name="Path 1294" d="M299.485,211a3.316,3.316,0,1,0,2.706,2.705A3.32,3.32,0,0,0,299.485,211Zm-.318,4.494a1.25,1.25,0,1,1,.982-.98A1.252,1.252,0,0,1,299.167,215.5Z" transform="translate(-68.481 -10.696)" fill="#f7d117" stroke="#f7d117" stroke-width="0.25"/>
    <path id="Path_1295" data-name="Path 1295" d="M327.2,211a3.316,3.316,0,1,0,2.705,2.706A3.32,3.32,0,0,0,327.2,211Zm-.318,4.494a1.25,1.25,0,1,1,.981-.981A1.252,1.252,0,0,1,326.878,215.5Z" transform="translate(-86.353 -10.695)" fill="#f7d117" stroke="#f7d117" stroke-width="0.25"/>
    <path id="Path_1296" data-name="Path 1296" d="M295.962,257.341h-9.883a4.582,4.582,0,0,0-4.582,4.582v3.591a4.58,4.58,0,0,0,4.58,4.58H288.7a1.032,1.032,0,0,0,1.032-1.033h0a1.032,1.032,0,0,0-1.032-1.032h-2.619a2.517,2.517,0,0,1-2.517-2.517v-3.591a2.516,2.516,0,0,1,2.516-2.515h9.884a4.947,4.947,0,0,1,4.947,4.947v6.889l-1.682-1.386a8.019,8.019,0,0,0-5.083-1.826h-.35a1.032,1.032,0,0,0-1.032,1.032h0a1.032,1.032,0,0,0,1.032,1.033h.35a5.945,5.945,0,0,1,3.77,1.355l3.03,2.5a1.245,1.245,0,0,0,1.792-.221,1.264,1.264,0,0,0,.238-.763v-8.61A7.012,7.012,0,0,0,295.962,257.341Z" transform="translate(-59.38 -40.612)" fill="#f7d117" stroke="#f7d117" stroke-width="0.25"/>
  </g>
</svg>
