<svg xmlns="http://www.w3.org/2000/svg" width="75" height="75" viewBox="0 0 75 75">
  <path id="Path_3287" data-name="Path 3287" d="M3576.464,311a1.01,1.01,0,0,1-.719-.3l-13.184-13.184a1.017,1.017,0,0,1,1.438-1.438l2.137,2.137,13.508-13.508-1.772-1.772a1.011,1.011,0,0,1-.3-.719V272.3a1.515,1.515,0,0,0-1.33-1.521q-.073-.007-.144-.007a1.476,1.476,0,0,0-1.474,1.474v4.937a1.047,1.047,0,0,1-.672,1,1.033,1.033,0,0,1-.345.059,1.01,1.01,0,0,1-.719-.3l-3.017-3.017-4.885,4.886a3.62,3.62,0,0,1-2.448,1.068l-.213.008-.007.213a3.62,3.62,0,0,1-1.068,2.447l-7.606,7.605h2.422a3.557,3.557,0,0,1,3.609,3.338,3.507,3.507,0,0,1-3.5,3.678h-9.542L3534.107,310.7a1.017,1.017,0,1,1-1.438-1.438l4.628-4.628-13.507-13.507-4.628,4.628a1.017,1.017,0,0,1-1.438-1.438l16.036-16.035-.461-.06a3.51,3.51,0,0,1-3.053-3.478V265.2l-12.521-12.521a1.017,1.017,0,1,1,1.438-1.438l4.628,4.627,2.136-2.137a1.017,1.017,0,0,1,1.438,1.438l-2.137,2.137,3.543,3.544,13.508-13.507-3.544-3.544-7.741,7.741a1.017,1.017,0,0,1-1.438-1.438l7.741-7.741-4.628-4.628a1.017,1.017,0,0,1,1.438-1.438l16.036,16.036.06-.461a3.511,3.511,0,0,1,3.474-3.053h9.547l12.522-12.522a1.017,1.017,0,1,1,1.438,1.438l-4.628,4.628,13.508,13.507,4.628-4.627a1.017,1.017,0,0,1,1.438,1.438l-16.036,16.036.461.06a3.511,3.511,0,0,1,3.053,3.478v9.543l12.521,12.522a1.017,1.017,0,1,1-1.438,1.438l-4.628-4.628-13.508,13.507,4.628,4.628a1.017,1.017,0,0,1-.719,1.736Zm-8.891-11.345,3.544,3.544,13.508-13.507-3.544-3.544Zm-42.345-9.964,13.507,13.507,3.544-3.544-13.508-13.507Zm22.226-21.553a1.615,1.615,0,0,0-1.149.476l-16.094,16.095,13.507,13.508,1.772-1.772a1.01,1.01,0,0,1,.719-.3h9.964a1.474,1.474,0,0,0,0-2.948h-4.982a1.017,1.017,0,0,1-.719-1.736l9.341-9.341a1.625,1.625,0,1,0-2.3-2.3l-5.6,5.6a1.017,1.017,0,0,1-1.438-1.438l5.6-5.6a1.625,1.625,0,0,0-2.3-2.3l-5.6,5.6a1.017,1.017,0,0,1-1.438-1.438l5.6-5.6a1.625,1.625,0,1,0-2.3-2.3l-5.6,5.6a1.017,1.017,0,1,1-1.438-1.438l5.6-5.6a1.625,1.625,0,0,0-1.149-2.774Zm17.8,1.489a1.017,1.017,0,0,1,.719,1.736l-4.724,4.724a1.625,1.625,0,0,0,2.3,2.3l16.1-16.094-13.508-13.508-1.772,1.772a1.01,1.01,0,0,1-.719.3h-9.91a1.515,1.515,0,0,0-1.521,1.33,1.474,1.474,0,0,0,1.467,1.618h4.937a1.047,1.047,0,0,1,1,.672,1.014,1.014,0,0,1-.238,1.064l-.365.365a1.017,1.017,0,0,1-1.438,0l-.067-.067h-3.867l7.605,7.6a3.658,3.658,0,0,1,1.072,2.587c0,.047,0,.094,0,.14l0,.1.071.07a.809.809,0,0,1,0,1.143l-4.872,4.872a1.625,1.625,0,0,0,2.3,2.3l4.724-4.724A1.011,1.011,0,0,1,3565.254,269.623Zm-35.045-7.336,1.772,1.772a1.009,1.009,0,0,1,.3.719v9.964a1.474,1.474,0,0,0,2.948,0V269.8a1.047,1.047,0,0,1,.672-1,1.033,1.033,0,0,1,.345-.059,1.01,1.01,0,0,1,.719.3l3.017,3.017,4.885-4.886a3.675,3.675,0,0,1,2.58-1.069l.144,0,.1,0,.071-.071a.811.811,0,0,1,1.146,0l4.828,4.828a1.728,1.728,0,0,0,1.212.5,1.584,1.584,0,0,0,1.092-.427,1.626,1.626,0,0,0,.036-2.333l-4.724-4.724a1.017,1.017,0,1,1,1.438-1.438l4.724,4.724a1.626,1.626,0,0,0,2.3,0l.01-.011a1.629,1.629,0,0,0-.009-2.288l-16.1-16.094Zm41.1,11.209,1.282,1.282v-2.563Zm-34.049,1.281,1.281-1.281-1.281-1.282Zm30.312-27.436,13.508,13.507,3.544-3.544L3571.117,243.8Zm-4.213,63.323a1.012,1.012,0,0,1-.989-.786l-1.759-7.538a1.017,1.017,0,0,1,.759-1.221,1.015,1.015,0,0,1,1.221.759l1.759,7.538a1.017,1.017,0,0,1-.759,1.221,1.02,1.02,0,0,1-.232.027Zm-16.868,0a1.021,1.021,0,0,1-.232-.027,1.017,1.017,0,0,1-.759-1.221l1.759-7.538a1.012,1.012,0,0,1,.99-.786,1.023,1.023,0,0,1,.232.027,1.017,1.017,0,0,1,.76,1.221l-1.759,7.538A1.012,1.012,0,0,1,3546.492,310.664Zm33.966-5.015a1.64,1.64,0,1,1,1.64-1.639A1.642,1.642,0,0,1,3580.458,305.649Zm-56.046-4.982a1.64,1.64,0,1,1,1.639-1.639A1.641,1.641,0,0,1,3524.412,300.668ZM3585.44,249.6a1.64,1.64,0,1,1,1.64-1.64A1.642,1.642,0,0,1,3585.44,249.6Zm-23.836-3.7a1.021,1.021,0,0,1-.232-.027,1.016,1.016,0,0,1-.759-1.221l1.759-7.538a1.017,1.017,0,0,1,1.98.462l-1.759,7.538a1.012,1.012,0,0,1-.989.786Zm-13.355,0a1.012,1.012,0,0,1-.99-.786l-1.759-7.538a1.017,1.017,0,1,1,1.98-.462l1.759,7.538a1.017,1.017,0,0,1-.76,1.221,1.022,1.022,0,0,1-.232.027Zm-18.855-1.278a1.64,1.64,0,1,1,1.64-1.64A1.642,1.642,0,0,1,3529.394,244.622Z" transform="translate(-3517.426 -235.996)" fill="#f7d117"/>
</svg>
