<svg xmlns="http://www.w3.org/2000/svg" width="78.325" height="75" viewBox="0 0 78.325 75">
  <g id="Group_2254" data-name="Group 2254" transform="translate(-4331.199 -236.996)">
    <path id="Path_3288" data-name="Path 3288" d="M4555.4,296.4a1.78,1.78,0,0,1-1.777-1.778v-1.852h-1.946a1.614,1.614,0,0,1-1.612-1.613v-5.277a1.6,1.6,0,0,1,.909-1.449l.129-.063V283.1l-.11-.067a11.721,11.721,0,0,1-4.04-4.112,11.635,11.635,0,0,1,18.2-14.139.924.924,0,0,1-1.287,1.326,9.78,9.78,0,1,0-11.85,15.384l.484.288a.93.93,0,0,1,.451.794v1.688h3.157v-5.083l-.151-.055a3,3,0,0,1-1.973-2.809V273.8a2.993,2.993,0,0,1,2.989-2.991h.12a2.993,2.993,0,0,1,2.989,2.991v2.52a3,3,0,0,1-1.974,2.81l-.151.055v5.083h3.159v-1.688a.929.929,0,0,1,.451-.794l.483-.287a9.862,9.862,0,0,0,3.466-3.5,9.757,9.757,0,0,0,.926-7.618.925.925,0,0,1,.628-1.146.922.922,0,0,1,1.146.628,11.6,11.6,0,0,1-1.1,9.064,11.717,11.717,0,0,1-4.04,4.112l-.111.067v1.263l.129.063a1.6,1.6,0,0,1,.91,1.449v5.277a1.615,1.615,0,0,1-1.613,1.613h-1.945v1.852a1.78,1.78,0,0,1-1.778,1.778Zm.07-1.848h3.124v-1.782h-3.124Zm-3.559-3.63h10.241v-4.807h-10.241Zm5.061-18.266a1.143,1.143,0,0,0-1.141,1.143v2.52a1.143,1.143,0,0,0,1.141,1.143h.12a1.143,1.143,0,0,0,1.141-1.143V273.8a1.143,1.143,0,0,0-1.141-1.143Z" transform="translate(-164.916 -18.857)" fill="#f7d117"/>
    <path id="Path_3289" data-name="Path 3289" d="M4592.919,240.758a.925.925,0,0,1-.924-.924V237.92a.924.924,0,1,1,1.848,0v1.914A.925.925,0,0,1,4592.919,240.758Z" transform="translate(-200.798)" fill="#f7d117"/>
    <path id="Path_3290" data-name="Path 3290" d="M4564.252,246.937a.925.925,0,0,1-.844-.547l-.782-1.747a.924.924,0,1,1,1.687-.755l.782,1.747a.923.923,0,0,1-.843,1.3Z" transform="translate(-178.123 -4.886)" fill="#f7d117"/>
    <path id="Path_3291" data-name="Path 3291" d="M4540.6,264.233a.922.922,0,0,1-.615-.236l-1.429-1.277a.924.924,0,0,1,1.232-1.378l1.429,1.277a.924.924,0,0,1-.617,1.613Z" transform="translate(-159.416 -18.564)" fill="#f7d117"/>
    <path id="Path_3292" data-name="Path 3292" d="M4526.074,289.641a.938.938,0,0,1-.284-.044l-1.826-.586a.924.924,0,1,1,.564-1.759l1.827.585a.924.924,0,0,1-.281,1.8Z" transform="translate(-147.924 -38.66)" fill="#f7d117"/>
    <path id="Path_3293" data-name="Path 3293" d="M4521.285,318.261a.924.924,0,0,1-.1-1.843l1.908-.208a.976.976,0,0,1,.1-.006.924.924,0,0,1,.1,1.843l-1.907.207A.891.891,0,0,1,4521.285,318.261Z" transform="translate(-145.645 -60.987)" fill="#f7d117"/>
    <path id="Path_3294" data-name="Path 3294" d="M4530.808,344.232a.927.927,0,0,1-.8-.459.923.923,0,0,1,.333-1.263l1.657-.965a.923.923,0,0,1,1.264.334.923.923,0,0,1-.333,1.263l-1.657.966A.928.928,0,0,1,4530.808,344.232Z" transform="translate(-152.975 -80.399)" fill="#f7d117"/>
    <path id="Path_3295" data-name="Path 3295" d="M4618.966,246.935a.923.923,0,0,1-.843-1.3l.782-1.747a.924.924,0,1,1,1.687.755l-.783,1.747A.925.925,0,0,1,4618.966,246.935Z" transform="translate(-220.853 -4.884)" fill="#f7d117"/>
    <path id="Path_3296" data-name="Path 3296" d="M4640.458,264.233a.924.924,0,0,1-.617-1.613l1.428-1.277a.924.924,0,0,1,1.232,1.378L4641.073,264A.923.923,0,0,1,4640.458,264.233Z" transform="translate(-237.4 -18.564)" fill="#f7d117"/>
    <path id="Path_3297" data-name="Path 3297" d="M4653.649,289.641a.924.924,0,0,1-.282-1.8l1.827-.585a.924.924,0,1,1,.564,1.759l-1.826.586A.942.942,0,0,1,4653.649,289.641Z" transform="translate(-247.557 -38.66)" fill="#f7d117"/>
    <path id="Path_3298" data-name="Path 3298" d="M4658.166,318.26c-.034,0-.068,0-.1-.006l-1.905-.207a.924.924,0,1,1,.2-1.838l1.908.208a.924.924,0,0,1-.1,1.843Z" transform="translate(-249.565 -60.986)" fill="#f7d117"/>
    <path id="Path_3299" data-name="Path 3299" d="M4649.48,344.233a.922.922,0,0,1-.464-.126l-1.657-.965a.924.924,0,1,1,.931-1.6l1.656.965a.923.923,0,0,1,.333,1.263A.928.928,0,0,1,4649.48,344.233Z" transform="translate(-243.072 -80.4)" fill="#f7d117"/>
    <path id="Path_3300" data-name="Path 3300" d="M4383,344.475a.924.924,0,1,1,0-1.848h11.7a.924.924,0,0,1,0,1.848Z" transform="translate(-39.173 -81.33)" fill="#f7d117"/>
    <path id="Path_3301" data-name="Path 3301" d="M4359.563,470.705a.924.924,0,0,1,0-1.848h22.489a.924.924,0,1,1,0,1.848Z" transform="translate(-21.127 -178.52)" fill="#f7d117"/>
    <path id="Path_3302" data-name="Path 3302" d="M4474.669,408.866a6.614,6.614,0,1,1,6.609-6.614A6.619,6.619,0,0,1,4474.669,408.866Zm-2.918-10.376a4.762,4.762,0,1,0,7.133,5.975l.178-.337h-.415a6.6,6.6,0,0,1-6.528-5.5l-.064-.379Zm2.917-1a4.75,4.75,0,0,0-.59.038l-.212.027.011.213a4.759,4.759,0,0,0,4.755,4.517,4.847,4.847,0,0,0,.59-.039l.213-.026-.011-.214A4.761,4.761,0,0,0,4474.668,397.485Z" transform="translate(-105.374 -122.145)" fill="#f7d117"/>
    <path id="Path_3303" data-name="Path 3303" d="M4332.893,367.058a1.7,1.7,0,0,1-1.694-1.693V310.2a1.7,1.7,0,0,1,1.694-1.693h6.847a.924.924,0,0,1,0,1.848h-6.693V365.21h33.266v-4.892h-14.108a2.181,2.181,0,0,1-2.167-1.924l-.024-.2h-11.579a.924.924,0,0,1,0-1.848h11.586v-3.624h-11.586a.924.924,0,0,1,0-1.848h11.828l.067-.112a2.2,2.2,0,0,1,1.875-1.068h14.108v-4.338l-.191-.033a19.19,19.19,0,0,1-7.676-3.145l-.06-.041h-20.752a1.7,1.7,0,0,1-1.694-1.693V324.363a1.7,1.7,0,0,1,1.694-1.693h24.093a1.7,1.7,0,0,1,1.693,1.693v1.32l.3-.092a18.991,18.991,0,0,1,2.4-.573l.191-.033V310.358H4345.28a.924.924,0,0,1,0-1.848h21.189a1.7,1.7,0,0,1,1.693,1.693v14.58l.24-.011c.342-.016.625-.023.891-.023a19.066,19.066,0,0,1,16.491,9.555,1.742,1.742,0,0,1,0,1.728,19.067,19.067,0,0,1-16.491,9.556c-.269,0-.56-.008-.89-.024l-.241-.012v4.137h20.3a6.724,6.724,0,0,1,2.806.715l5.843,3.185a1.535,1.535,0,0,1,0,2.827l-5.843,3.185a6.722,6.722,0,0,1-2.806.715h-20.3v5.046a1.7,1.7,0,0,1-1.693,1.693Zm26.278-8.588h27.861v-2.542h-4.977a.924.924,0,0,1,0-1.848h4.977v-2.542h-27.861v2.542h17.5a.924.924,0,0,1,0,1.848h-17.5Zm-6.966-6.932a.338.338,0,0,0-.335.331v6.269a.338.338,0,0,0,.335.332h5.118v-6.932Zm36.675,6.9.275-.055a4.774,4.774,0,0,0,1.229-.407l1.434-.782v-4.389l-1.434-.782a4.81,4.81,0,0,0-1.229-.407l-.276-.055Zm4.787-2.252,2.178-1.188-2.178-1.187ZM4369.294,326.6a17.239,17.239,0,0,0-14.787,8.455l-.069.117.069.117a17.158,17.158,0,0,0,29.574,0l.069-.117-.069-.117A17.242,17.242,0,0,0,4369.294,326.6Zm-31.505,13.688h18.336l-.385-.391a18.955,18.955,0,0,1-2.936-3.861,1.741,1.741,0,0,1,0-1.728,18.947,18.947,0,0,1,8.634-7.847l.135-.061v-1.879h-23.784Z" transform="translate(0 -55.062)" fill="#f7d117"/>
  </g>
</svg>
