<svg xmlns="http://www.w3.org/2000/svg" width="85.803" height="75" viewBox="0 0 85.803 75">
  <g id="Group_2253" data-name="Group 2253" transform="translate(-2671.714 -234.172)">
    <path id="Path_3283" data-name="Path 3283" d="M2880.958,481.809a1.037,1.037,0,0,1,0-2.075h4.728a1.037,1.037,0,1,1,0,2.075Z" transform="translate(-161.123 -190.031)" fill="#f7d117"/>
    <path id="Path_3284" data-name="Path 3284" d="M2882.708,309.172a1.039,1.039,0,0,1-1-1.079l.979-24.1a6.051,6.051,0,0,0-.209-1.834l-.1-.376-4.109,4.109a6.016,6.016,0,0,0-1.773,4.282v17.966a1.037,1.037,0,0,1-2.075,0V290.17a8.077,8.077,0,0,1,2.381-5.749l4.519-4.519-.14-.159a6.073,6.073,0,0,0-2.361-1.646l-6.554-2.528-4.983,7.474a3.389,3.389,0,0,1-2.5,1.5c-.112.011-.226.017-.339.017a3.392,3.392,0,0,1-1.667-.441l-.355-.2,1.066,24.173a1.037,1.037,0,0,1-.991,1.082h-.046a1.035,1.035,0,0,1-1.035-.992l-.982-22.275h-3.056l-.982,22.275a1.035,1.035,0,0,1-1.035.992h-.046a1.037,1.037,0,0,1-.991-1.082l1.065-24.173-.355.2a3.392,3.392,0,0,1-1.667.441c-.113,0-.227-.006-.339-.017a3.388,3.388,0,0,1-2.495-1.5l-4.983-7.474L2839,278.1a6.083,6.083,0,0,0-1.225.641,1.037,1.037,0,1,1-1.166-1.716,8.149,8.149,0,0,1,1.644-.86l6.925-2.671,3.542-3.542a1.036,1.036,0,0,1,.667-.3l.212-.014v-3.093l-.061-.065a12.813,12.813,0,0,1-3.248-6.4l-.036-.193-.2.009c-.05,0-.1,0-.149,0a3.388,3.388,0,0,1-.681-.069,3.512,3.512,0,0,1-2.721-3.487v-.907a3.539,3.539,0,0,1,1.931-3.188l.164-.08-.043-.177a31.133,31.133,0,0,1-.87-7.286c0-3.539,1.613-5.25,2.966-6.061a6.384,6.384,0,0,1,2.51-.853l.066-.008.051-.042a16.591,16.591,0,0,1,9.573-3.529c.469-.026.938-.038,1.391-.038,4.937,0,8.858,1.516,11.343,4.385,2.815,3.251,3.721,8.138,2.618,14.135l-.022.117.084.084a3.583,3.583,0,0,1,1.046,2.527v.922a3.512,3.512,0,0,1-2.72,3.487,3.4,3.4,0,0,1-.681.069q-.075,0-.15,0l-.2-.009-.036.193a12.811,12.811,0,0,1-3.248,6.4l-.061.065v3.093l.212.014a1.033,1.033,0,0,1,.667.3l3.542,3.542,6.925,2.671a8.128,8.128,0,0,1,5.2,7.911l-.979,24.1a1.034,1.034,0,0,1-1.035,1Zm-25.144-27.4-.091,2.061h2.873l-.091-2.061-1.345-1.346Zm2.863-2.762,3.088,3.087a1.3,1.3,0,0,0,.935.389c.05,0,.095,0,.134-.007a1.307,1.307,0,0,0,.973-.584l5.021-7.532-2.259-2.259Zm-13.186-4.646,5.021,7.532a1.306,1.306,0,0,0,.973.584c.039,0,.084.007.133.007a1.3,1.3,0,0,0,.935-.388l3.087-3.087L2849.5,272.1Zm4.431-3.115,7.237,6.333,7.237-6.333v-2.933l-.347.221a12.851,12.851,0,0,1-13.78,0l-.347-.221Zm-5.521-13.431a2.241,2.241,0,0,1,2.166,1.826,10.77,10.77,0,0,0,21.185,0,2.243,2.243,0,0,1,2.168-1.826q.075,0,.151.006c.03,0,.06,0,.091,0a1.308,1.308,0,0,0,.265-.027,1.453,1.453,0,0,0,1.062-1.454v-.922a1.421,1.421,0,0,0-1.078-1.408,1.552,1.552,0,0,0-.274-.021,3.454,3.454,0,0,0-.768.092,1.85,1.85,0,0,1-2.139-1.1l-.989-2.376-.182.036a30.786,30.786,0,0,1-5.921.595c-3.775,0-8.933-.819-12.067-4.722a1.039,1.039,0,0,1,.159-1.458,1.038,1.038,0,0,1,1.458.159c2.066,2.572,5.674,3.932,10.433,3.932a28.766,28.766,0,0,0,6.479-.752,1.037,1.037,0,0,1,1.22.6l1.256,3.016.177-.029a5.331,5.331,0,0,1,.875-.075c.053,0,.105,0,.157,0l.2.007.032-.2c.826-5.077.049-9.162-2.249-11.815-2.078-2.4-5.458-3.668-9.775-3.668-.416,0-.846.012-1.278.035a14.516,14.516,0,0,0-8.6,3.26,1.054,1.054,0,0,1-.717.288,4.3,4.3,0,0,0-2.01.641c-1.246.791-1.877,2.214-1.877,4.232a29.236,29.236,0,0,0,.909,7.179l.033.126.125.035a3.371,3.371,0,0,1,1.285.686l.148.127.147-.128a6.971,6.971,0,0,0,1.017-1.1,1.037,1.037,0,1,1,1.665,1.238,8.94,8.94,0,0,1-2.021,1.976,1.537,1.537,0,0,1-2.112-.333,1.318,1.318,0,0,0-1.054-.521,1.409,1.409,0,0,0-.246.022,1.427,1.427,0,0,0-1.079,1.424v.908a1.453,1.453,0,0,0,1.062,1.454,1.333,1.333,0,0,0,.266.027c.03,0,.06,0,.09,0Q2846.075,257.816,2846.152,257.816Z" transform="translate(-127.254 -0.002)" fill="#f7d117"/>
    <path id="Path_3285" data-name="Path 3285" d="M2714.513,309.171a1.039,1.039,0,0,1-.994-1.081l.746-17.6a6.03,6.03,0,0,0-.832-3.306l-.163-.278-3.523,4.227a7.253,7.253,0,0,0-1.677,4.633v12.372a1.037,1.037,0,1,1-2.074,0V295.763a9.328,9.328,0,0,1,2.158-5.961l3.684-4.421-.2-.14a5.969,5.969,0,0,0-1-.559l-5.557-2.426-3.9,6.335a2.216,2.216,0,0,1-1.544,1.028,2.258,2.258,0,0,1-.346.027,2.22,2.22,0,0,1-1.44-.531l-2.781-2.373v21.393a1.037,1.037,0,0,1-2.075,0V286.741l-2.781,2.373a2.219,2.219,0,0,1-3.33-.524l-3.9-6.335-5.557,2.426a5.972,5.972,0,0,0-1,.559l-.2.14,3.684,4.421a9.332,9.332,0,0,1,2.158,5.961v12.372a1.037,1.037,0,0,1-2.075,0V295.763a7.253,7.253,0,0,0-1.677-4.633l-3.522-4.227-.163.278a6.034,6.034,0,0,0-.832,3.306l.746,17.6a1.039,1.039,0,0,1-.992,1.081h-.045a1.034,1.034,0,0,1-1.035-.994l-.746-17.6a8.181,8.181,0,0,1,4.87-7.8l6.209-2.71,3.4-3.4a1.034,1.034,0,0,1,.666-.3l.212-.014V274.03l-.1-.067a12.739,12.739,0,0,1-5.572-8.349l-.036-.193-.2.009c-.05,0-.1,0-.149,0a3.421,3.421,0,0,1-.786-.092,3.533,3.533,0,0,1-2.616-3.464v-.908a3.546,3.546,0,0,1,1.518-2.944l.13-.089-.038-.153a14.077,14.077,0,0,1-.427-3.435,14.465,14.465,0,0,1,6.988-12.3l.105-.066v-.124a8.14,8.14,0,0,1,16.256,0v.124l.105.066a14.465,14.465,0,0,1,6.988,12.3,14.088,14.088,0,0,1-.43,3.445l-.038.153.13.089a3.533,3.533,0,0,1,1.521,2.921v.921a3.533,3.533,0,0,1-2.616,3.464,3.427,3.427,0,0,1-.787.092q-.074,0-.148,0l-.2-.009-.036.193a12.74,12.74,0,0,1-5.571,8.349l-.1.067v2.322l.212.014a1.036,1.036,0,0,1,.667.3l3.4,3.4,6.209,2.71a8.181,8.181,0,0,1,4.871,7.8l-.746,17.6a1.034,1.034,0,0,1-1.036.994Zm-18.956-24.739,3.766,3.213,4.032-6.546-2.233-2.233ZM2684.7,281.1l4.032,6.546,3.766-3.213-5.566-5.565Zm4.453-2.948,4.873,4.873,4.873-4.873v-3.036l-.306.117a12.837,12.837,0,0,1-9.134,0l-.306-.117Zm-7.886-14.8a2.241,2.241,0,0,1,2.167,1.826,10.77,10.77,0,0,0,21.185,0,2.243,2.243,0,0,1,2.169-1.826c.05,0,.1,0,.151.005.03,0,.06,0,.091,0a1.335,1.335,0,0,0,.308-.037,1.463,1.463,0,0,0,1.019-1.445v-.921a1.326,1.326,0,0,0-1.35-1.43,3.039,3.039,0,0,0-1.126.211,1.035,1.035,0,0,1-1.185-.093l-1.55-1.275-.088,0c-.326.019-.854.041-1.518.041a30.777,30.777,0,0,1-6.226-.631c-4.5-.95-7.991-2.872-10.364-5.712a1.037,1.037,0,1,1,1.592-1.33c4.222,5.053,11.914,5.6,15.025,5.6.628,0,1.113-.021,1.41-.038.043,0,.086,0,.129,0a2.211,2.211,0,0,1,1.4.505l1.039.854.112-.029a5.6,5.6,0,0,1,.945-.155l.162-.013.04-.157a12.042,12.042,0,0,0,.371-2.954c0-6.924-5.9-12.557-13.148-12.557s-13.148,5.633-13.148,12.557a12.023,12.023,0,0,0,.373,2.959l.038.149.153.019a3.385,3.385,0,0,1,1.788.787l.148.127.147-.128a6.937,6.937,0,0,0,1-1.072,1.037,1.037,0,0,1,1.659,1.246,8.953,8.953,0,0,1-1.995,1.941,1.536,1.536,0,0,1-2.112-.333,1.319,1.319,0,0,0-1.054-.521,1.323,1.323,0,0,0-1.325,1.446v.908a1.464,1.464,0,0,0,1.019,1.445,1.337,1.337,0,0,0,.309.037c.03,0,.06,0,.089,0C2681.169,263.352,2681.22,263.35,2681.271,263.35Zm12.759-23.633a15.647,15.647,0,0,1,5.547,1.006l.422.159-.125-.434a6.165,6.165,0,0,0-11.688,0l-.125.434.422-.159A15.65,15.65,0,0,1,2694.03,239.717Z" fill="#f7d117"/>
    <path id="Path_3286" data-name="Path 3286" d="M2730.253,506.453a1.037,1.037,0,1,1,0-2.075h3.546a1.037,1.037,0,0,1,0,2.075Z" transform="translate(-44.498 -209.102)" fill="#f7d117"/>
  </g>
</svg>
